<?xml version="1.0" encoding="UTF-8"?>
<svg id="Capa_2" data-name="Capa 2" xmlns="http://www.w3.org/2000/svg" viewBox="0 0 35.59 34.94">
  <defs>
    <style>
      .cls-1 {
        fill: #50754d;
      }
    </style>
  </defs>
  <g id="Capa_1-2" data-name="Capa 1">
    <g>
      <path class="cls-1" d="M35.03,21.24l-16.79-8.27s-.04,0-.06-.02c-.06-.03-.13-.04-.2-.05-.06-.01-.12-.02-.18-.02-.06,0-.13.01-.19.03-.06.01-.13.02-.19.05-.02,0-.04,0-.06.02l-11.13,5.48c-.19.04-.36.11-.49.24l-5.17,2.55c-.5.24-.7.84-.46,1.34.17.35.53.56.9.56.15,0,.3-.03.44-.1l3.98-1.96v12.87c0,.55.45,1,1,1h23.26c.55,0,1-.45,1-1v-12.61l3.47,1.71c.14.07.29.1.44.1.37,0,.72-.21.9-.56.24-.5.04-1.09-.46-1.34ZM28.68,32.94H7.42v-12.85l10.37-5.11,10.89,5.36v12.6Z"/>
      <path class="cls-1" d="M10.63,10.21c.09.16.26.25.43.25.08,0,.17-.02.25-.07l3.88-2.24c.09.12.17.26.23.43.22.66.7,1.31.46,1.94.3.21.19.28.4.56.33-.25.15-.32.73-.21.36.07.6.13,1,.1-.15-.18-.15-.17-.45-.24.13-.21.34-.22-.27-.27-.32-.03-.52,0-.68-.19-.18-.21-.43-1.06-.41-1.41.36-.29.36-.38.79-.65l.12.19c.27.54.77,1.02.87,1.34-.22.26-.35.23-.53.43.28.12.38-.04.69-.06.12.19.11.24.3.4.34-.3.12-.27.76-.15.33.06.54.09.88.1-.28-.46-1.2-.58-1.29-.63-.12-.06-.8-.95-.88-1.17.33-.53.97-.8,1.54-1.17l5.04,2.91c.08.05.17.07.25.07.17,0,.34-.09.43-.25.14-.24.06-.54-.18-.68l-4.76-2.75c.15-.21.28-.45.34-.76.08-.43.08-.73.02-.98l4.4-2.54c.24-.14.32-.44.18-.68-.14-.24-.45-.32-.68-.18l-4.29,2.48c-.03-.07-.07-.14-.1-.21-.14-.32-.23-.62-.38-.93-.3-.63.24-.34-.07-1.01.01,0,.03-.02.04,0l.12-.06c.06-.09,0-.14-.04-.25-.23-.56-.08-.94-.54-1.43-.01-.02-.05.11-.15-.22-.18.18-.1.28-.4.05-.11.66-.45-.07-.24.99-1.23.73-.35,2.53-1.47,2.91-.23.08-.96.23-1.24.24l-.07-.04c-.32-.37-.27-.58-.47-1.04-.36-.03-.63.11-.8.31l-3.09-1.79c-.24-.14-.54-.06-.68.18-.14.24-.06.54.18.68l3.44,1.99s-.01.09-.02.16c-.21,1.33.45,1.16.32,2.15-.03.23,0,.41.04.56l-3.78,2.18c-.24.14-.32.44-.18.68Z"/>
    </g>
  </g>
</svg>