<?xml version="1.0" encoding="UTF-8"?>
<svg id="Capa_2" data-name="Capa 2" xmlns="http://www.w3.org/2000/svg" viewBox="0 0 42.58 42.18">
  <defs>
    <style>
      .cls-1 {
        fill: #50754d;
      }
    </style>
  </defs>
  <g id="Capa_1-2" data-name="Capa 1">
    <g>
      <path class="cls-1" d="M31.63,19.85L1.55.16C1.09-.14.47,0,.16.45-.14.91,0,1.53.45,1.84l24.98,16.35v3.76c-5.39.18-9.56,1.81-12.38,4.9-4.46,4.88-3.92,11.53-3.9,11.81.02.26.24.46.5.46h15.78v2.08c0,.55.45,1,1,1s1-.45,1-1v-21.69l3.1,2.03c.17.11.36.16.55.16.33,0,.65-.16.84-.45.3-.46.17-1.08-.29-1.38ZM10.13,38.1c-.03-1.55.14-6.75,3.67-10.59,2.62-2.86,6.54-4.39,11.64-4.56v15.16h-15.3Z"/>
      <path class="cls-1" d="M41.83,9.84h-5.72l1.61-1.61c.29-.29.29-.77,0-1.06s-.77-.29-1.06,0l-2.87,2.87c-.15.15-.22.35-.22.54,0,0,0,0,0,.01,0,.24.12.45.3.58l2.84,2.84c.15.15.34.22.53.22s.38-.07.53-.22c.29-.29.29-.77,0-1.06l-1.61-1.61h5.67c.41,0,.75-.34.75-.75s-.34-.75-.75-.75Z"/>
      <path class="cls-1" d="M24.21,26.18s.02-.07.02-.1c0-.02.01-.04.01-.06,0-.01,0-.02,0-.03,0-.04-.01-.07-.02-.1,0-.03-.02-.06-.03-.08-.01-.03-.03-.05-.05-.08-.02-.03-.04-.05-.07-.08,0,0-.01-.02-.02-.02l-1.93-1.48c-.22-.17-.53-.13-.7.09-.17.22-.13.53.09.7l.86.66c-7.06.75-8.97,7.21-9.45,9.8l-.67-.91c-.17-.22-.48-.27-.7-.11-.22.16-.27.48-.11.7l1.42,1.92c.08.11.2.18.33.2.02,0,.05,0,.07,0,.11,0,.21-.03.3-.1l1.96-1.45c.22-.16.27-.48.11-.7-.17-.22-.48-.27-.7-.11l-1.04.77c.39-2.34,2.07-8.44,8.79-9.04l-.78,1.03c-.17.22-.13.53.09.7.09.07.2.1.3.1.15,0,.3-.07.4-.2l1.45-1.9s.02-.04.03-.05c.02-.03.03-.06.04-.09Z"/>
    </g>
  </g>
</svg>