<?xml version="1.0" encoding="UTF-8"?>
<svg id="Capa_2" data-name="Capa 2" xmlns="http://www.w3.org/2000/svg" viewBox="0 0 40.99 31.85">
  <defs>
    <style>
      .cls-1 {
        fill: #50754d;
      }
    </style>
  </defs>
  <g id="Capa_1-2" data-name="Capa 1">
    <path class="cls-1" d="M40.99,20.98h0v-10.06h0v-2.31c0-.09-.03-.17-.08-.25-.01-.02-.02-.03-.03-.05-.05-.07-.12-.13-.2-.16,0,0,0,0,0,0l-5.65-2.29c-.11-.24-.38-.36-.63-.26h-.01S20.68.04,20.68.04c-.12-.05-.26-.05-.38,0L.31,8.14s0,0,0,0c-.08.03-.15.09-.2.16-.01.02-.02.03-.03.05C.03,8.43,0,8.51,0,8.6v2.31s0,0,0,0v10.06s0,0,0,0v2.26s0,0,0,0c0,.06.01.13.04.19,0,0,0,0,0,0,.03.07.08.13.13.18.04.04.09.07.14.09,0,0,0,0,0,0l4.52,1.83c.42.28.47.44.47.44-.05.14-.56.41-1.1.52-.24.05-.41.27-.39.51.01.24.19.44.44.47.03,0,.33.04.74.04.77,0,1.98-.13,2.8-.79l.07.03c.04.07.06.14.04.2-.09.26-.77.57-1.33.69-.26.05-.43.31-.39.57,0,.02-.01.05,0,.07.02.26.24.46.5.46.01,0,.02,0,.04,0,2.15-.15,3.55-.41,4.21-.76l9.39,3.8s0,0,0,0h0c.06.03.12.04.19.04s.13-.01.19-.04h0s0,0,0,0l19.99-8.1s0,0,0,0c.06-.02.11-.06.16-.1,0,0,0,0,0,0,.05-.05.09-.11.11-.18.02-.05.03-.11.03-.17,0,0,0,0,0,0v-2.26ZM11.15,27c-.08-.05-.16-.07-.24-.08l-2.42-.98s-.03-.05-.06-.08c-.13-.14-.32-.19-.5-.14l-6.94-2.81v-1.19l19,7.7v1.19l-8.81-3.57s-.02-.02-.03-.03ZM1,11.65l19,7.7v8.99L1,20.64v-8.98ZM21,19.35l19-7.7v8.99l-19,7.7v-8.99ZM39.99,10.57l-19,7.7v-1.23l4.41-1.79,14.58-5.91v1.23ZM20.5,16.17l-6.45-2.61s.02,0,.03,0l19.17-2.55-12.75,5.17ZM17.06,12.15c.13-.16.23-.33.28-.51.12-.46.04-.84-.14-1.15h12.33l-12.47,1.66ZM15.74,9.49s-.02,0-.03,0c-.04,0-.07.01-.1.02-.03,0-.06.01-.09.03-.03.01-.05.03-.08.05-.03.02-.05.04-.07.06-.02.02-.03.05-.05.08-.02.03-.04.06-.05.09,0,0,0,0,0,0-.09-.04-.18-.06-.28-.05l-2.44.36c.09-.18.16-.36.16-.54,0-.05-.02-.08-.03-.13l8.93-.3c-.02.06-.03.13-.02.2,0,.04.02.08.04.12h-5.9ZM11.1,11.36l4.04-.6c.19-.03.33-.16.39-.32.01,0,.03.01.04.02,0,0,.01.01.02.01,0,0,.95.29.78.91-.03.13-.22.35-.65.59-1.04.58-2.92.94-4.27.54l-1.74-.71c.53-.09.99-.25,1.39-.44ZM20,17.04v1.23L1,10.57v-1.23l19,7.7ZM21,29.41l19-7.7v1.19l-19,7.7v-1.19ZM36.98,9.49h-12.59l4-.56s.03-.01.04-.01c.02,0,.05,0,.07-.01l5.89-2.24,4.78,1.94-2.18.88ZM20.5,1.04l12.52,5.07-4.8,1.83-16.78.57c-.36-.03-.68.01-.78.03-.02,0-.04.02-.06.02-.03.01-.06.02-.09.04-.03.02-.05.03-.07.05-.03.02-.05.04-.07.07-.02.02-.03.05-.05.08-.02.03-.03.06-.04.09,0,.03-.01.06-.02.09,0,.02-.01.05-.01.07,0,.01,0,.02,0,.03,0,0,0,.02,0,.03,0,.02.02.04.02.06.01.04.02.07.04.1.01.03.03.05.05.07.02.02.04.05.06.07.03.02.05.04.08.05.03.01.05.03.08.04.03.01.07.02.1.02.02,0,.04.01.06.01h.02l.66-.02c.15.01.27.04.3.08,0,.08-.17.34-.58.61-.38.26-1.79,1.05-3.86.45-.11-.03-.22-.02-.32.02l-5.13-2.08L20.5,1.04ZM6.21,26.4c.03-.07.06-.15.07-.23,0-.01,0-.03,0-.04l.32.13c-.13.05-.25.1-.39.14ZM8.71,27.54c.05-.08.1-.17.13-.26.01-.03.01-.07.02-.1l.6.24c-.23.04-.48.08-.75.12Z"/>
  </g>
</svg>